<svg t="1684744106780" class="icon" viewBox="0 0 1024 1024" version="1.1" xmlns="http://www.w3.org/2000/svg" p-id="1134" width="200" height="200"><path d="M610.389333 170.666667a85.333333 85.333333 0 0 1 84.181334 71.296l2.304 14.037333H810.666667a106.666667 106.666667 0 0 1 106.666666 106.666667v384A106.666667 106.666667 0 0 1 810.666667 853.333333H213.333333a106.666667 106.666667 0 0 1-106.666666-106.666666v-384A106.666667 106.666667 0 0 1 213.333333 256h113.749334l2.346666-14.037333A85.333333 85.333333 0 0 1 413.610667 170.666667h196.778666z m0 64H413.610667a21.333333 21.333333 0 0 0-20.053334 14.208L392.533333 252.586667 382.976 309.333333a12.8 12.8 0 0 1-12.586667 10.666667H213.333333a42.666667 42.666667 0 0 0-42.368 37.674667L170.666667 362.666667v384a42.666667 42.666667 0 0 0 37.674666 42.368L213.333333 789.333333h597.333334a42.666667 42.666667 0 0 0 42.368-37.674666L853.333333 746.666667v-384a42.666667 42.666667 0 0 0-37.674666-42.368L810.666667 320h-157.226667a12.8 12.8 0 0 1-12.629333-10.709333l-9.386667-56.789334a21.333333 21.333333 0 0 0-17.237333-17.493333l-3.84-0.341333zM512 426.666667a128 128 0 1 1 0 256 128 128 0 0 1 0-256z m0 64a64 64 0 1 0 0 128 64 64 0 0 0 0-128z m213.333333-117.333334a32 32 0 0 1 4.352 63.701334L725.333333 437.333333h-42.666666a32 32 0 0 1-4.352-63.701333L682.666667 373.333333h42.666666z" p-id="1135"></path></svg>